<?xml version="1.0" encoding="UTF-8"?>
<svg width="3300" height="2550" version="1.1" xmlns="http://www.w3.org/2000/svg" xmlns:cc="http://creativecommons.org/ns#" xmlns:dc="http://purl.org/dc/elements/1.1/" xmlns:rdf="http://www.w3.org/1999/02/22-rdf-syntax-ns#">
 <metadata>
  <rdf:RDF>
   <cc:Work rdf:about="">
    <dc:format>image/svg+xml</dc:format>
    <dc:type rdf:resource="http://purl.org/dc/dcmitype/StillImage"/>
    <dc:title/>
   </cc:Work>
  </rdf:RDF>
 </metadata>
 <path d="m780.52 717.68c-2.65 0.01963-5.3535 0.31641-7.5195 0.31641h-36-130c4.268 31.697 16.494 64.113 24.85 95 17.281 63.882 34.88 127.82 51.023 192 6.065 24.11 13.045 48.05 19.703 72 1.607 5.78 8.7167 21.16 6.0957 26.68-2.018 4.25-15.507 3.6701-19.672 4.1601-18.625 2.23-38.54 2.6502-56 10.16 0-13.01 5.024-31-12-31 0-50.35-2-100.63-2-151 0-13.712-1-27.337-1-41 0-7.1969 0.76656-14.799-0.83594-21.836-0.48142-2.1141-1.1677-4.1787-2.1641-6.1641h-1l-3.0898 132-7.9102 88c-15.831 0-18.228 13.06-23.051 26-2.648 7.1-9.8969 17.7-10.256 25-0.248 5.04 5.0064 11.35 6.8574 16 6.25 15.7 8.1802 36 28.449 36-9.081 15.64-1.8751 38.79-1.0391 56 1.657 34.09 7.6172 67.96 9.9492 102 1.3834 20.209-3.029 42.03 1.8926 61.803 0.35086 1.4097 0.74602 2.8098 1.1973 4.1973h1l3-224c17.721-0.05 12-23.01 12-36 37.858 14.6 78.95 20.019 119 25.279 40.381 5.31 80.62 11.69 121 17 129.81 17.07 259.19 37.371 389 54.441 41.36 5.44 82.64 11.56 124 17 31.2 4.1 63.75 8.02 94 17 46.07 13.67 85.461 42.159 116.71 78.279 20.88 24.13 36.699 52.69 58.379 76 20.8 22.36 50.63 36.471 78.91 47.051 10.6 3.97 21.59 9.0192 33 9.9492v1c-4.51 0-10.91-0.8195-14.49 2.5605-4.23 4.01-5.9097 13.08-7.9297 18.44-5.78 15.3-11.219 30.76-17.199 45.98-2.2 5.61-7.9409 7.8404-12.381 11.48-5.59 4.59-10.04 10.249-13.56 16.539-18.12 32.39-1.6795 74.87 33.56 86.48 31.25 10.3 66.21-7.0705 76.25-38.48 8.29-25.94-3.43-66.16-33.25-73 6.16-15.96 12.11-32.01 18.19-48 1.68-4.42 3.3412-14.31 8.0312-16.4 14.45-6.41 37.899 3.7905 52.779 5.2305 37.59 3.64 77.22 0.1699 115 0.1699 22.04 0 45.07 1.9301 67-0.1699 10.46-1 20.62-5.5603 31-5.8203 106.61-2.65 213.44-0.0098 320-0.0098 2.82 16.37 11.31 33.46 17.19 49 2 5.26 2.9105 13.09 8.8105 15v1c-46.38 13.65-43.79 81.03-9 104.48 38.82 26.17 94.629-3.1405 93.539-50.48-0.4-17.7-7.5291-32.95-20.539-44.91-4.68-4.3-12.48-6.8594-15.91-12.189-11.67-18.12-16.31-44.74-24.09-64.9 40.38-5.1 80.16-11.319 120-19.789 27.63-5.88 58.06-12.512 82-28.182 32.69-21.39 46.2-71.659 21.48-103.03-18.59-23.59-42.87-42.49-65.48-62-14.29-12.33-29.11-23.83-44-35.42-7.55-5.88-15.24-13.68-24-17.58v-1c4.78-0.54 6.63-2.16 7-7l103-7.9102 163-3.0898v-4h1l1-5h-2l-80-2v-1l110-7v-2h1l0.125-1h0.875v-6l-0.5 3 0.5-4h-2l-72-3.9609-194-5.0391c0-6.31 2.1107-17.281-1.0293-22.891-4.67-8.35-25.541-9.0394-33.971-9.1094v-1l19-12v-1c-21.16-17.05-47.63-23.99-74-28.41-52.98-8.89-105.88-1.4096-159-5.6796-14.95-1.21-30.18-8.2494-45-11.109-25.11-4.84-50.52-5.8008-76-5.8008-3.24-20.47-35.51-24.491-52-27.391-21.59-3.79-43.23-3.6985-65-4.6485-34.49-1.51-70.99-0.9601-105 5.8399-22.17 4.43-44.22 8.7201-66 14.91-14.77 4.2-30.74 11.479-46 13.119-23.98 2.57-48.97-2.7901-73-2.8301-69.17-0.11-138.92-0.9909-208 2.0391-57.64 2.52-115.35 3.47-173 6-32.03 1.4-66 5.4411-98 2.8711-39.05-3.14-75.92-27.5-115-30.91v-1c72.03 0 145.51 2.96 217 12 0.78 9.95 16.69 7 24 7 13.62 0 27.4-0.6308 41 0.0391 4.15 0.2 7.99 2.91 12 2.83 7.76-0.16 15.73-2.8691 24-2.8691 14.87 0 31.32 1.9705 46-0.4395 5.7-0.93 6.2905-5.7108 11.06-7.1308 14.46-4.29 33.84-3.2999 48.94-4.3399 71.02-4.87 141.69-7.0898 213-7.0898 3.82-2.11 4.59-5.47 0-7v-2l-236-4v-5h179 56l31 1v-1-1-1h0.1543l-0.1543 1h0.4277l-0.4277 1c2.7487-1.6081 3.9584-3.4329 3.168-6.3828 0.5799-2.4903 0.4031-4.9773-1.168-7.6172l-0.1875 1.2168c-0.2823-1.5021-0.8377-2.9302-1.8125-4.2168v-1l-266 3c0-6.71 2.8498-22.079-1.7402-27.361-7.66-8.81-31.57-8.1927-42.26-8.6777-26.08-1.184-51.97-1.4552-78 0.96484-8.27 0.769-24.45 1.0119-30.4 7.7129-3.57 4.0221-1.5996 14.291-1.5996 19.361l-30 1c-2.01 6.63-9.27 5-15 5-14.01 0-27.96 0.84-42 1-59.49 0.71-119.7 2.32-179 7 0.01 12.61 10.51 10.501 21 10.961 21.99 0.97 43.97 4.0391 66 4.0391-18.72 5.53-42.59 2-62 2-13.1 0-26.98 2.7997-40 0.6797-41.12-6.72-87.13-23.91-121-48.275-33.24-23.909-58.872-54.561-85.271-85.404-28.836-33.691-57.669-67.388-86.598-101-18.613-21.627-37.204-43.28-55.709-65-7.294-8.562-15.898-23.403-25.707-28.973-1.948-1.1065-4.5453-1.3634-7.1953-1.3438zm396.48 312.32c-4.31 2.41-3.28 5.18-1 9h1v-9zm689-3l1 1-1-1zm-32.67 21.67l0.3398 0.6602-0.3398-0.6602zm1.3398 0.6602l0.6602 0.3398-0.6602-0.3398z" fill="#010101"/>
</svg>
